<?xml version="1.0" encoding="utf-8"?>
<!-- Generator: Adobe Illustrator 23.0.2, SVG Export Plug-In . SVG Version: 6.00 Build 0)  -->
<svg version="1.1" id="Layer_1" xmlns="http://www.w3.org/2000/svg" xmlns:xlink="http://www.w3.org/1999/xlink" x="0px" y="0px"
	 viewBox="0 0 512 512" style="enable-background:new 0 0 512 512;" xml:space="preserve">
<path d="M124.3,495l-24.5-24.5c-1.1-1.1-2.6-1.7-4.2-1.7h-4c6.8-8.7,10.8-19.6,10.8-31.5c0-28.3-22.9-51.2-51.2-51.2
	S0,408.9,0,437.2c0,28.3,22.9,51.2,51.2,51.2c11.9,0,22.8-4,31.5-10.8v4c0,1.6,0.6,3.1,1.7,4.2l24.5,24.5c2.3,2.3,6.1,2.3,8.3,0l7-7
	C126.6,501,126.6,497.3,124.3,495z M51.2,468.7c-17.4,0-31.5-14.1-31.5-31.5c0-17.4,14.1-31.5,31.5-31.5c17.4,0,31.5,14.1,31.5,31.5
	C82.7,454.6,68.6,468.7,51.2,468.7z"/>
</svg>
